<svg xmlns="http://www.w3.org/2000/svg" viewBox="950 0 1713.6599999999999 804.3250122070312"><path transform="matrix(1,0,0,-1,1087.3449,265.32875)" d="M0 0C-84.332-6.433-94.765 123.594-12.415 132.358 73.481 141.469 81.41 6.225 0 0M57.658 178.088V164.108C-15.058 220.48-116.917 162.404-122.76 75.047-129.193-21.318-23.022-91.878 57.658-31.437V-48.895H111.214V178.088Z" fill="#ffffff"/><path transform="matrix(1,0,0,-1,0,804.325)" d="M1678.14 490.094H1730.5231V799.735H1678.14Z" fill="#ffffff"/><path transform="matrix(1,0,0,-1,0,804.325)" d="M1807.081 490.094H1859.4641V799.735H1807.081Z" fill="#ffffff"/><path transform="matrix(1,0,0,-1,0,804.325)" d="M1540.78 490.094H1593.1631V717.087H1540.78Z" fill="#ffffff"/><path transform="matrix(1,0,0,-1,0,804.325)" d="M1937.557 490.094H1989.9401V717.087H1937.557Z" fill="#ffffff"/><path transform="matrix(1,0,0,-1,1353.6594,643.7266)" d="M0 0C-84.367-6.468-94.765 123.559-12.45 132.323 73.482 141.469 81.411 6.19 0 0M57.624 178.053V164.108C-15.058 220.445-116.952 162.404-122.794 75.047-129.228-21.352-23.057-91.878 57.624-31.472V-48.93H111.179V178.053Z" fill="#ffffff"/><path transform="matrix(1,0,0,-1,2312.956,643.7266)" d="M0 0C-84.367-6.468-94.765 123.559-12.45 132.323 73.447 141.469 81.376 6.19 0 0M57.624 178.053V164.108C-15.093 220.445-116.952 162.404-122.794 75.047-129.228-21.352-23.057-91.878 57.624-31.472V-48.93H111.179V178.053Z" fill="#ffffff"/><path transform="matrix(1,0,0,-1,1111.4596,461.09443)" d="M0 0C-25.337 6.96-57.477 5.216-77.905-12.706L-78.482-4.564H-130.865V-231.556H-78.482V-105.255C-78.482-79.901-60.012-52.631-33.524-50.104 3.75-46.546 13.767-76.465 15.797-107.594L15.807-231.556H68.191L68.179-99.447C64.216-56.862 44.449-12.21 0 0" fill="#ffffff"/><path transform="matrix(1,0,0,-1,2544.6116,473.8008)" d="M0 0-.577 8.143H-54.124V-218.85H-.577V-92.549C-.577-89.017 2.31-77.329 3.488-73.332 15.695-31.933 60.974-26.01 88.474-57.023L119.044-14.544C89.618 17.383 35.324 28.879 0 0" fill="#ffffff"/><path transform="matrix(1,0,0,-1,0,804.325)" d="M1937.557 111.674H1989.9401V421.315H1937.557Z" fill="#ffffff"/><path transform="matrix(1,0,0,-1,0,804.325)" d="M2072.588 111.674H2124.971V421.315H2072.588Z" fill="#ffffff"/><path transform="matrix(1,0,0,-1,0,804.325)" d="M1807.081 111.674H1859.4641V338.667H1807.081Z" fill="#ffffff"/><path transform="matrix(1,0,0,-1,1617.9225,643.7266)" d="M0 0C-75.742 5.773-79.185 122.516-2.017 131.175 89.513 141.469 91.217-6.99 0 0M68.091 178.053 67.848 164.247C60.441 170.333 52.999 175.619 41.07 179.931-66.457 214.916-152.458 92.226-91.148-1.565-57.519-52.999 18.884-72.995 68.091-31.472V-52.999C68.091-60.545 58.563-77.759 53.555-83.845 22.187-121.96-34.811-110.066-57.659-69.865L-104.05-97.199C-90.835-120.116-68.3-139.382-44.061-150.024 33.211-184.035 113.161-132.045 121.612-50.669L121.646 178.053Z" fill="#ffffff"/><path transform="matrix(1,0,0,-1,1622.9287,436.96913)" d="M0 0C-27.808 0-54.618 9-75.491 25.341L-49.079 59.077C-35.709 48.611-18.28 42.848 0 42.848 18.299 42.848 35.746 48.623 49.128 59.108L75.556 25.381C54.668 9.013 27.835 0 0 0" fill="#ffffff"/><path transform="matrix(1,0,0,-1,1351.6426,265.885)" d="M0 0C-75.777 5.808-79.22 122.516-2.017 131.21 89.479 141.504 91.218-6.955 0 0M68.091 178.088 67.848 164.247C60.44 170.333 52.999 175.654 41.07 179.966-66.492 214.951-152.493 92.226-91.183-1.53-57.554-52.999 18.883-72.995 68.091-31.437V-52.964C68.091-60.545 58.563-77.759 53.555-83.845 22.152-121.96-34.846-110.031-57.659-69.865L-104.085-97.199C-90.835-120.082-68.335-139.348-44.096-150.024 33.176-184 113.127-132.01 121.612-50.634V178.088Z" fill="#ffffff"/><path transform="matrix(1,0,0,-1,1356.6287,59.108339)" d="M0 0C-27.808 0-54.618 9-75.491 25.341L-49.079 59.077C-35.709 48.611-18.28 42.848 0 42.848 18.299 42.848 35.746 48.623 49.128 59.108L75.556 25.381C54.668 9.013 27.835 0 0 0" fill="#ffffff"/></svg>
